# xmcd
#
# Track frame offsets: 
#        150
#        18279
#        31033
#        42686
#        63707
#        78326
#        92526
#        105756
#        118680
#        133940
#        146461
#        157277
#        168048
#        192868
#        209426
#        226092
#        240747
#        256532
#        271827
#        290089
#        305670
#        320139
#        335340
#
# Disc length: 4797 seconds
#
# Revision: 1
# Processed by: cddbd v1.5.2PL0 Copyright (c) Steve Scherf et al.
# Submitted via: ExactAudioCopyFreeDBPlugin 1.0
#
DISCID=4212bb17
DTITLE=Various Artist - Deep(er) in the Philly Groove:  Volumes 1 and 2
DTITLE=[Kent Soul]
DYEAR=1999
DGENRE=Soul
TTITLE0=The Finishing Touch - Sunshine and Promises
TTITLE1=The Crusaders - You Pay for Love
TTITLE2=Mary Holmes - I'll Make it Up to You
TTITLE3=The Delfonics - Think it Over
TTITLE4=Ben Aiken - Our Anniversary
TTITLE5=David Lasley - Merry-Go-Round
TTITLE6=The Finishing Touch - Second Best (Is Never Good Enough)
TTITLE7=Tapestry - Big Stone Wall
TTITLE8=Nat Turner Rebellion - Laugh to Keep from Crying
TTITLE9=First Choice - Gonna Keep on Lovin' Him
TTITLE10=The Delfonics - You'll Get Enough
TTITLE11=Mary Holmes - I Need Your Lovin'
TTITLE12=First Choice - Let Him Go
TTITLE13=Major Harris - Ultra High Frequency - Saddest Smile in Town
TTITLE14=Nat Turner Rebellion - McBride's Daughter
TTITLE15=The Delfonics - I Don't Want to Make You Wait
TTITLE16=The Finishing Touch - Your Love Has Put a Spell on Me
TTITLE17=The Quickest Way Out - I Don't Want to Lose (Your Love)
TTITLE18=The Delfonics - Lying to Myself
TTITLE19=Nat Turner Rebellion - Never Too Late
TTITLE20=The Delfonics - I Told You So
TTITLE21=The Finishing Touch - Don't Put Me Down
TTITLE22=First Choice - Gotta Get Away (From You Baby)
EXTD=
EXTT0=
EXTT1=
EXTT2=
EXTT3=
EXTT4=
EXTT5=
EXTT6=
EXTT7=
EXTT8=
EXTT9=
EXTT10=
EXTT11=
EXTT12=
EXTT13=
EXTT14=
EXTT15=
EXTT16=
EXTT17=
EXTT18=
EXTT19=
EXTT20=
EXTT21=
EXTT22=
PLAYORDER=
